<svg xmlns="http://www.w3.org/2000/svg" width="600" height="340" viewBox="0 0 600 340" role="img" aria-label="Cartridge No.10: Flood Alerting System (BUILT). Rising water, instant alerts. 90% lower outage risk."><title>Cartridge No.10: Flood Alerting System (BUILT). Rising water, instant alerts. 90% lower outage risk.</title><defs><linearGradient id="sky" x1="0" y1="0" x2="0" y2="1"><stop offset="0.00" stop-color="#07011A"/><stop offset="0.33" stop-color="#1B0549"/><stop offset="0.67" stop-color="#5B0F8A"/><stop offset="1.00" stop-color="#F72585"/></linearGradient>
<linearGradient id="sun" x1="0" y1="0" x2="0" y2="1"><stop offset="0.00" stop-color="#FFE45E"/><stop offset="0.50" stop-color="#FF7B54"/><stop offset="1.00" stop-color="#F72585"/></linearGradient>
<linearGradient id="chrome" x1="0" y1="0" x2="0" y2="1"><stop offset="0" stop-color="#E9F6FF"/><stop offset=".48" stop-color="#7EC8FF"/>
  <stop offset=".5" stop-color="#2A1B5C"/><stop offset=".75" stop-color="#FFB2E6"/><stop offset="1" stop-color="#FFFFFF"/></linearGradient>
<filter id="neon" x="-20%" y="-50%" width="140%" height="200%"><feGaussianBlur stdDeviation="4" result="b"/>
  <feMerge><feMergeNode in="b"/><feMergeNode in="b"/><feMergeNode in="SourceGraphic"/></feMerge></filter>
<filter id="soft" x="-50%" y="-50%" width="200%" height="200%"><feGaussianBlur stdDeviation="18"/></filter>
<pattern id="scan" width="4" height="4" patternUnits="userSpaceOnUse"><rect width="4" height="2" fill="#000" opacity="0.18"/></pattern><clipPath id="frame"><rect width="600" height="340" rx="20"/></clipPath></defs><style>.blink{animation:bl 1s steps(1) infinite}@keyframes bl{50%{opacity:0}}@media (prefers-reduced-motion: reduce){*{animation:none!important}}</style><g clip-path="url(#frame)"><rect width="600" height="340" fill="#120531"/><path d="M60,30 H540 a16,16 0 0 1 16,16 V300 H44 V46 a16,16 0 0 1 16,-16 Z" fill="#3B3552" stroke="#1E1A2E" stroke-width="3"/><rect x="80" y="304" width="12" height="18" fill="#1E1A2E"/><rect x="100" y="304" width="12" height="18" fill="#1E1A2E"/><rect x="120" y="304" width="12" height="18" fill="#1E1A2E"/><rect x="140" y="304" width="12" height="18" fill="#1E1A2E"/><rect x="160" y="304" width="12" height="18" fill="#1E1A2E"/><rect x="180" y="304" width="12" height="18" fill="#1E1A2E"/><rect x="200" y="304" width="12" height="18" fill="#1E1A2E"/><rect x="220" y="304" width="12" height="18" fill="#1E1A2E"/><rect x="240" y="304" width="12" height="18" fill="#1E1A2E"/><rect x="260" y="304" width="12" height="18" fill="#1E1A2E"/><rect x="280" y="304" width="12" height="18" fill="#1E1A2E"/><rect x="300" y="304" width="12" height="18" fill="#1E1A2E"/><rect x="320" y="304" width="12" height="18" fill="#1E1A2E"/><rect x="340" y="304" width="12" height="18" fill="#1E1A2E"/><rect x="360" y="304" width="12" height="18" fill="#1E1A2E"/><rect x="380" y="304" width="12" height="18" fill="#1E1A2E"/><rect x="400" y="304" width="12" height="18" fill="#1E1A2E"/><rect x="420" y="304" width="12" height="18" fill="#1E1A2E"/><rect x="440" y="304" width="12" height="18" fill="#1E1A2E"/><rect x="460" y="304" width="12" height="18" fill="#1E1A2E"/><rect x="480" y="304" width="12" height="18" fill="#1E1A2E"/><rect x="500" y="304" width="12" height="18" fill="#1E1A2E"/><rect x="520" y="304" width="12" height="18" fill="#1E1A2E"/><rect x="76" y="50" width="448" height="210" rx="8" fill="#090018"/><linearGradient id="lab" x1="0" y1="0" x2="1" y2="1"><stop offset="0" stop-color="#FFE45E" stop-opacity=".35"/><stop offset="1" stop-color="#FF4FD8" stop-opacity=".35"/></linearGradient><rect x="76" y="50" width="448" height="210" rx="8" fill="url(#lab)"/><text x="96" y="84" font-family="'Press Start 2P', 'Courier New', Courier, monospace" font-size="12" font-weight="700" fill="#B9A6E0" text-anchor="start" >No.10</text><text x="504" y="84" font-family="'Press Start 2P', 'Courier New', Courier, monospace" font-size="12" font-weight="700" fill="#FF4FD8" text-anchor="end" >BUILT</text><text x="96" y="136" font-family="'Arial Black', 'Helvetica Neue', Impact, Arial, sans-serif" font-size="24" font-style="italic" font-weight="900" fill="url(#chrome)" stroke="#1E1A2E" stroke-width="1">FLOOD ALERTING SYSTEM</text><text x="96" y="178" font-family="'Press Start 2P', 'Courier New', Courier, monospace" font-size="12" font-weight="700" fill="#F8F0FF" text-anchor="start" >Rising water, instant alerts.</text><text x="96" y="204" font-family="'Press Start 2P', 'Courier New', Courier, monospace" font-size="12" font-weight="700" fill="#FFE45E" text-anchor="start" >90% lower outage risk</text><text x="96" y="242" font-family="'Press Start 2P', 'Courier New', Courier, monospace" font-size="11" font-weight="700" fill="#B9A6E0" text-anchor="start" >IOT · EMBEDDED C</text><rect x="76" y="270" width="448" height="22" rx="4" fill="#1E1A2E"/><text x="300" y="286" font-family="'Press Start 2P', 'Courier New', Courier, monospace" font-size="11" font-weight="700" fill="#FFFFFF" text-anchor="middle" >◆ COLLECTOR'S EDITION</text><rect width="600" height="340" fill="url(#scan)"/></g></svg>
