<svg xmlns="http://www.w3.org/2000/svg" width="1200" height="440" viewBox="0 0 1200 440" role="img" aria-label="Chapter VI, 2026 · Kanchipuram: The plant runs on it. Now I test transformers and write the software the plant runs on. Nine apps. Every shift. To be continued."><title>Chapter VI, 2026 · Kanchipuram: The plant runs on it. Now I test transformers and write the software the plant runs on. Nine apps. Every shift. To be continued.</title><defs></defs><style>.move{animation:mv 5s linear infinite}@keyframes mv{from{transform:translateX(-560px)}to{transform:translateX(780px)}}.puff{animation:pf 3s ease-out infinite}@keyframes pf{to{transform:translateY(-50px) scale(1.6);opacity:0}}.spin{animation:sp 3s linear infinite}@keyframes sp{to{transform:rotate(360deg)}}.type{transform-box:fill-box;transform-origin:left;animation:ty 4s ease-out infinite}@keyframes ty{0%{transform:scaleX(0)}30%,100%{transform:scaleX(1)}}.ok{animation:ok 4s steps(1) infinite}@keyframes ok{0%,55%{opacity:0}56%,100%{opacity:1}}.spark{animation:sk 1.4s ease-in-out infinite}@keyframes sk{50%{transform:scale(.3)}}.fast{animation:sp .8s linear infinite}.win{animation:wn 2s steps(1) infinite}@keyframes wn{50%{opacity:.25}}.truck{animation:tk 4s linear infinite}@keyframes tk{from{transform:translateX(0)}to{transform:translateX(460px)}}@media (prefers-reduced-motion: reduce){*{animation:none!important}}</style><rect width="1200" height="440" fill="#FDF3E3"/><rect y="330" width="1200" height="110" fill="#EADBC4"/><g transform="translate(420 0)"><path d="M110 330 V180 L190 140 V180 L270 140 V180 L350 140 V180 L430 140 V180 L560 120 V330Z" fill="#6E6556"/><rect class="win" style="animation-delay:0.0s" x="140" y="200" width="30" height="24" fill="#D9480F"/><rect class="win" style="animation-delay:1.7s" x="196" y="200" width="30" height="24" fill="#D9480F"/><rect class="win" style="animation-delay:1.4s" x="252" y="200" width="30" height="24" fill="#D9480F"/><rect class="win" style="animation-delay:1.1s" x="308" y="200" width="30" height="24" fill="#D9480F"/><rect class="win" style="animation-delay:0.8s" x="364" y="200" width="30" height="24" fill="#D9480F"/><rect class="win" style="animation-delay:0.5s" x="420" y="200" width="30" height="24" fill="#D9480F"/><rect class="win" style="animation-delay:0.2s" x="476" y="200" width="30" height="24" fill="#D9480F"/><rect class="win" style="animation-delay:1.9s" x="532" y="200" width="30" height="24" fill="#D9480F"/><rect class="win" style="animation-delay:1.6s" x="140" y="244" width="30" height="24" fill="#D9480F"/><rect class="win" style="animation-delay:1.3s" x="196" y="244" width="30" height="24" fill="#D9480F"/><rect class="win" style="animation-delay:1.0s" x="252" y="244" width="30" height="24" fill="#D9480F"/><rect class="win" style="animation-delay:0.7s" x="308" y="244" width="30" height="24" fill="#D9480F"/><rect class="win" style="animation-delay:0.4s" x="364" y="244" width="30" height="24" fill="#D9480F"/><rect class="win" style="animation-delay:0.1s" x="420" y="244" width="30" height="24" fill="#D9480F"/><rect class="win" style="animation-delay:1.8s" x="476" y="244" width="30" height="24" fill="#D9480F"/><rect class="win" style="animation-delay:1.5s" x="532" y="244" width="30" height="24" fill="#D9480F"/><rect x="600" y="160" width="40" height="170" fill="#6E6556"/><g class="truck"><rect x="640" y="290" width="70" height="36" fill="#1E1B16"/><rect x="710" y="300" width="30" height="26" fill="#1E1B16"/></g></g><rect x="40" y="70" width="380" height="255" fill="#FDF3E3" opacity=".88"/><text x="60.0" y="110.0" font-family="'Segoe UI', 'Helvetica Neue', Arial, sans-serif" font-size="14" font-weight="700" fill="#D9480F" text-anchor="start" letter-spacing="4">CHAPTER VI</text><text x="60.0" y="136.0" font-family="'Segoe UI', 'Helvetica Neue', Arial, sans-serif" font-size="14" font-weight="600" fill="#6E6556" text-anchor="start" >2026 · Kanchipuram</text><text x="60.0" y="182.0" font-family="Georgia, 'Iowan Old Style', 'Times New Roman', serif" font-size="34" font-weight="700" fill="#1E1B16" text-anchor="start" >The plant runs on it</text><text x="60.0" y="222.0" font-family="Georgia, 'Iowan Old Style', 'Times New Roman', serif" font-size="17" font-weight="400" fill="#1E1B16" text-anchor="start" >Now I test transformers and write the</text><text x="60.0" y="247.5" font-family="Georgia, 'Iowan Old Style', 'Times New Roman', serif" font-size="17" font-weight="400" fill="#1E1B16" text-anchor="start" >software the plant runs on. Nine apps.</text><text x="60.0" y="273.0" font-family="Georgia, 'Iowan Old Style', 'Times New Roman', serif" font-size="17" font-weight="400" fill="#1E1B16" text-anchor="start" >Every shift. To be continued.</text><rect width="1200" height="36" fill="#000"/><rect y="404" width="1200" height="36" fill="#000"/></svg>
